{"title":"Turtles.Can.Fly.(Lakposhtha Parvaz Mikonand).2004.LIMITED.DVDRip","uid":14340655,"size":2494789377,"categoryP":"video","categoryS":"movies","magnet":"?xt=urn:btih:d8cccae4bf3916a2fce0739b064bb96ad641d80e&amp;dn=Turtles.Can.Fly.%28Lakposhtha+Parvaz+Mikonand%29.2004.LIMITED.DVDRip&amp;tr=udp%3A%2F%2Ftracker.leechers-paradise.org%3A6969&amp;tr=udp%3A%2F%2Fzer0day.ch%3A1337&amp;tr=udp%3A%2F%2Fopen.demonii.com%3A1337&amp;tr=udp%3A%2F%2Ftracker.coppersurfer.tk%3A6969&amp;tr=udp%3A%2F%2Fexodus.desync.com%3A6969","seeders":9,"leechers":3,"uploader":"Faceless_822","files":1,"time":1460760125,"description":"General\r\nComplete name                            : Turtles.Can.Fly.(Lakposhtha Parvaz Mikonand).2004.LIMITED.DVDRip.x264.mkvTurtles.Can.Fly.(Lakposhtha Parvaz Mikonand).2004.LIMITED.DVDRip.x264.mkv\r\nFormat                                   : Matroska\r\nFormat version                           : Version 2\r\nFile size                                : 2.32 GiB\r\nDuration                                 : 1h 33mn\r\nOverall bit rate                         : 3 573 Kbps\r\n\r\nVideo\r\nID                                       : 1\r\nFormat                                   : AVC\r\nFormat/Info                              : Advanced Video Codec\r\nFormat profile                           :   \r\nFormat settings, CABAC                   : Yes\r\nFormat settings, ReFrames                : 16 frames\r\nCodec ID                                 : V_MPEG4/ISO/AVC\r\nDuration                                 : 1h 33mn\r\nBit rate                                 : 3 246 Kbps\r\nWidth                                    : 716 pixels\r\nHeight                                   : 548 pixels\r\nDisplay aspect ratio                     : 1.85:1\r\nFrame rate mode                          : Constant\r\nFrame rate                               : 25.000 fps\r\nColor space                              : YUV\r\nChroma subsampling                       : 4:2:0\r\nBit depth                                : 8 bits\r\nScan type                                : Progressive\r\nBits/(Pixel*Frame)                       : 0.331\r\nStream size                              : 2.11 GiB (91%)\r\nWriting library                          : x264 core 142 r2479 dd79a61\r\nEncoding settings                        : cabac=1 / ref=16 / deblock=1:-1:-1 / analyse=0x3:0x133 / me=umh / subme=10 / psy=1 / psy_rd=1.00:0.15 / mixed_ref=1 / me_range=24 / chroma_me=1 / trellis=2 / 8x8dct=1 / cqm=0 / deadzone=21,11 / fast_pskip=1 / chroma_qp_offset=-3 / threads=6 / lookahead_threads=1 / sliced_threads=0 / nr=0 / decimate=1 / interlaced=0 / bluray_compat=0 / constrained_intra=0 / bframes=8 / b_pyramid=2 / b_adapt=2 / b_bias=0 / direct=3 / weightb=1 / open_gop=0 / weightp=2 / keyint=250 / keyint_min=25 / scenecut=40 / intra_refresh=0 / rc_lookahead=60 / rc=crf / mbtree=1 / crf=17.0 / qcomp=0.60 / qpmin=0 / qpmax=69 / qpstep=4 / vbv_maxrate=62500 / vbv_bufsize=78125 / crf_max=0.0 / nal_hrd=none / filler=0 / ip_ratio=1.40 / aq=1:1.00\r\nDefault                                  : Yes\r\nForced                                   : No\r\nColor range                              : Limited\r\nColor primaries                          : BT.601 PAL\r\nTransfer characteristics                 : BT.709\r\nMatrix coefficients                      : BT.601\r\n\r\nAudio\r\nID                                       : 2\r\nFormat                                   : AC-3\r\nFormat/Info                              : Audio Coding 3\r\nMode extension                           : CM (complete main)\r\nFormat settings, Endianness              : Big\r\nCodec ID                                 : A_AC3\r\nDuration                                 : 1h 33mn\r\nBit rate mode                            : Constant\r\nBit rate                                 : 256 Kbps\r\nChannel(s)                               : 2 channels\r\nChannel positions                        : Front: L R\r\nSampling rate                            : 48.0 KHz\r\nFrame rate                               : 31.250 fps (1536 spf)\r\nCompression mode                         : Lossy\r\nStream size                              : 170 MiB (7%)\r\nTitle                                    : Stereo\r\nLanguage                                 : Kurdish\r\nDefault                                  : Yes\r\nForced                                   : No\r\n\r\nMenu\r\n00:00:00.000                             : :Chapter 1\r\n00:11:25.760                             : :Chapter 2\r\n00:23:38.720                             : :Chapter 3\r\n00:34:10.880                             : :Chapter 4\r\n00:45:23.840                             : :Chapter 5\r\n00:55:34.880                             : :Chapter 6\r\n01:07:20.960                             : :Chapter 7\r\n01:16:49.760                             : :Chapter 8","torrent":{"xt":"urn:btih:d8cccae4bf3916a2fce0739b064bb96ad641d80e","amp;dn":"Turtles.Can.Fly.%28Lakposhtha+Parvaz+Mikonand%29.2004.LIMITED.DVDRip","amp;tr":["udp%3A%2F%2Ftracker.leechers-paradise.org%3A6969","udp%3A%2F%2Fzer0day.ch%3A1337","udp%3A%2F%2Fopen.demonii.com%3A1337","udp%3A%2F%2Ftracker.coppersurfer.tk%3A6969","udp%3A%2F%2Fexodus.desync.com%3A6969"],"infoHash":"d8cccae4bf3916a2fce0739b064bb96ad641d80e","infoHashBuffer":{"type":"Buffer","data":[216,204,202,228,191,57,22,162,252,224,115,155,6,75,185,106,214,65,216,14]},"announce":[],"urlList":[]}}